<?xml version="1.0"?>
<svg xmlns="http://www.w3.org/2000/svg" xmlns:xlink="http://www.w3.org/1999/xlink" xmlns:svgjs="http://svgjs.com/svgjs" version="1.1" width="512" height="512" x="0" y="0" viewBox="0 0 512 512" style="enable-background:new 0 0 512 512" xml:space="preserve" class=""><g><path xmlns="http://www.w3.org/2000/svg" d="m397.61 512h.58v-.03c-.19.01-.38.03-.58.03z" fill="#ffff00" data-original="#ffff00" class=""/><g xmlns="http://www.w3.org/2000/svg"><path d="m339.15 329.94h-48.76v-18.65c30.58-13.88 52.09-45.62 52.04-82.3v-28.9h9.41c12.87-.09 23.36-11.04 23.36-24.43 0-10.76-6.77-19.93-16.1-23.17 6.91-26.66 6.29-44.81 1.75-63.47-5.69-18.85-15.98-35.64-29.5-48.92 3.59.15 6.78 1.07 9.93 2.84 1.24.7 2.58 1.03 3.9 1.03 3.01 0 5.92-1.71 7.29-4.72 1.78-3.91-.02-8.51-3.77-10.57-8.35-4.59-16.25-5.14-22.62-4.52-1.28-6.5-3.84-12.9-7.64-19.11-2.28-3.72-7.02-5.28-10.83-3.19-4.08 2.24-5.39 7.42-2.97 11.33 2.07 3.35 3.63 6.73 4.7 10.11-15.83-9.21-34.03-14.48-53.37-14.48-33.43.4-68.83 20.61-94.03-8.01-1.3-1.47-3.71-.83-4.06 1.11-1.39 7.83-1.5 14.81 1.58 19.16.93 1.32-.16 3.12-1.77 3.04-8.28-.42-14.54-4.82-20.43-11-.76-.8-1.99-.95-2.91-.36-21.02 13.4-5.42 55.25 16.86 75.68-.01-.01-.01-.01-.02-.01-4.56 18.63-5.24 37.4 1.67 64.06-9.33 3.24-16.1 12.41-16.1 23.17 0 13.39 10.49 24.34 23.36 24.43l9.38.12v28.78c-.02 36.69 21.5 68.43 52.07 82.31v18.64h-48.76c-32.14 0-58.45 27.31-58.45 60.69v121.37h283.24v-121.37c0-33.38-26.31-60.66-58.45-60.69z" fill="#fec8a2" data-original="#fec8a2" class=""/><path d="m346.1 512v-41.38h51.51v-79.99c0-33.37-26.31-60.66-58.45-60.69h-48.76l-34.41 29.49-34.38-29.49h-48.76c-32.14 0-58.45 27.31-58.45 60.69v79.99h51.51v41.38z" fill="#2e5080" data-original="#2e5080" class=""/><path d="m342.45 211.34v17.66c.06 49.36-38.89 89.76-86.46 89.76-47.54 0-86.49-40.41-86.46-89.76v-18.01c0 26.52 22 46.71 38.01 48.74 1.9-21.46 1.19-38.35 48.44-38.35 47.28 0 46.57 16.89 48.47 38.35 15.95-2.01 37.83-22.05 38-48.39z" fill="#92563a" data-original="#92563a" class=""/><path d="m160.15 200.09c-12.87-.09-23.36-11.04-23.36-24.43 0-13.45 10.57-24.43 23.5-24.43h9.24v48.86zm182.3-48.85h9.27c12.93 0 23.5 10.98 23.5 24.43 0 13.39-10.49 24.34-23.36 24.43h-9.41z" fill="#fdbf92" data-original="#fdbf92" class=""/><path d="m151.22 88.43c3.29 3.03 6.75 5.59 10.23 7.5 7.06 3.88 14.68 6.62 22.71 8.42l-.03.03c-8.67 1.32-14.6 6.03-14.6 17.33v29.52h-9.24c-2.58 0-5.07.44-7.4 1.27-6.91-26.66-6.23-45.44-1.67-64.07z" fill="#874d36" data-original="#874d36" class=""/><g><path d="m312.68 189.42c-3.63 0-6.92-2.5-7.78-6.21-.51-2.18-2.36-3.77-4.4-3.77-2.03 0-3.87 1.57-4.36 3.73-.99 4.33-5.28 7.04-9.59 6.04-4.31-.99-7-5.31-6.01-9.64 2.15-9.4 10.54-16.22 19.96-16.22 9.54 0 17.75 6.66 19.98 16.18 1.01 4.33-1.66 8.66-5.96 9.67-.62.15-1.24.22-1.84.22zm-89.01 0c-3.63 0-6.92-2.5-7.78-6.21-.51-2.18-2.35-3.77-4.37-3.77-2.04 0-3.89 1.58-4.4 3.77-1.01 4.33-5.32 7.01-9.62 6-4.3-1.02-6.97-5.35-5.96-9.67 2.22-9.53 10.44-16.19 19.98-16.19 9.52 0 17.73 6.66 19.95 16.18 1.01 4.33-1.66 8.66-5.96 9.67-.62.15-1.23.22-1.84.22z" fill="#874d36" data-original="#f4a876" class=""/></g><path d="m360.87 89.02c-5.69-18.85-15.98-35.64-29.5-48.92 3.59.15 6.77 1.07 9.91 2.84 1.24.7 2.58 1.03 3.9 1.03 3.01 0 5.92-1.71 7.29-4.72 1.78-3.91-.02-8.51-3.77-10.57-8.35-4.59-16.25-5.14-22.62-4.52-1.28-6.5-3.84-12.9-7.64-19.11-2.28-3.72-7.02-5.28-10.83-3.19-4.08 2.24-5.39 7.42-2.97 11.33 2.07 3.34 3.63 6.72 4.7 10.1-15.82-9.2-34.02-14.47-53.36-14.47-33.43.4-68.83 20.61-94.03-8.02-1.29-1.47-3.71-.83-4.05 1.11-1.39 7.83-1.5 14.81 1.58 19.16.93 1.32-.16 3.12-1.77 3.04-8.28-.42-14.54-4.82-20.43-11-.76-.8-1.99-.95-2.91-.36-24.12 15.38-.01 68.23 27.08 83.17 65.25 36.02 180.99-28.43 180.99 27.34v27.96h9.27c2.58 0 5.07.44 7.4 1.27 6.92-26.65 6.3-44.81 1.76-63.47z" fill="#92563a" data-original="#92563a" class=""/><path d="m278.12 248.36h-44.25c-1.77 0-3.14 1.56-2.93 3.33 1.59 12.87 12.25 22.9 25.05 22.9s23.47-10.03 25.05-22.9c.22-1.77-1.15-3.33-2.92-3.33z" fill="#f9ba8f" data-original="#f9ba8f" class=""/><g fill="#2a4b72"><path d="m362.1 470.62v-32.64c0-4.44-3.58-8.05-8-8.05s-8 3.6-8 8.05v32.64z" fill="#2a4b72" data-original="#2a4b72" class=""/><path d="m165.91 470.62v-32.64c0-4.44-3.58-8.05-8-8.05s-8 3.6-8 8.05v32.64z" fill="#2a4b72" data-original="#2a4b72" class=""/></g><path d="m313.81 329.94-25.75 53.84-26.96-22.5c-1.39-1.16-3.17-1.85-5.11-1.85s-3.72.7-5.11 1.86l-26.96 22.5-25.75-53.84h-17.75l33.52 70.1c1.07 2.23 3.1 3.85 5.5 4.37.57.12 1.14.19 1.71.19 1.85 0 3.66-.64 5.11-1.85l21.73-18.14v56.59c0 4.44 3.58 8.05 8 8.05s8-3.6 8-8.05v-56.59l21.73 18.14c1.45 1.21 3.26 1.85 5.11 1.85.57 0 1.14-.06 1.71-.19 2.41-.53 4.44-2.14 5.5-4.37l33.52-70.1h-17.75z" fill="#2a4b72" data-original="#2a4b72" class=""/><path d="m221.61 311.3v14.03c10.55 4.79 22.18 7.46 34.38 7.46 12.21 0 23.84-2.67 34.4-7.46v-14.03c-10.56 4.79-22.19 7.46-34.4 7.46-12.2 0-23.83-2.67-34.38-7.46z" fill="#fdbf92" data-original="#fdbf92" class=""/></g></g></svg>
